<?xml version="1.0" standalone="no"?><svg xmlns="http://www.w3.org/2000/svg" xmlns:xlink="http://www.w3.org/1999/xlink" style="isolation:isolate" viewBox="0 0 32.579 31.775" width="32.579" height="31.775"><path d=" M 16.288 0 C 7.294 0 0 7.293 0 16.29 C 0 23.487 4.667 29.592 11.14 31.746 C 11.955 31.896 12.252 31.393 12.252 30.961 C 12.252 30.574 12.238 29.55 12.23 28.191 C 7.699 29.175 6.743 26.007 6.743 26.007 C 6.002 24.125 4.934 23.624 4.934 23.624 C 3.455 22.614 5.046 22.634 5.046 22.634 C 6.681 22.749 7.541 24.313 7.541 24.313 C 8.994 26.802 11.354 26.083 12.282 25.666 C 12.43 24.614 12.851 23.896 13.316 23.489 C 9.699 23.078 5.896 21.68 5.896 15.438 C 5.896 13.66 6.531 12.205 7.573 11.067 C 7.405 10.655 6.846 8.998 7.733 6.756 C 7.733 6.756 9.1 6.318 12.212 8.426 C 13.511 8.064 14.905 7.884 16.29 7.877 C 17.674 7.884 19.067 8.064 20.368 8.426 C 23.478 6.318 24.843 6.756 24.843 6.756 C 25.732 8.998 25.173 10.655 25.006 11.067 C 26.05 12.205 26.68 13.66 26.68 15.438 C 26.68 21.696 22.871 23.073 19.243 23.476 C 19.827 23.979 20.348 24.973 20.348 26.492 C 20.348 28.67 20.328 30.427 20.328 30.961 C 20.328 31.397 20.622 31.904 21.448 31.745 C 27.916 29.586 32.579 23.485 32.579 16.29 C 32.579 7.293 25.285 0 16.288 0 Z " fill-rule="evenodd" fill="rgb(0,0,0)"/></svg>
