<?xml version="1.0" standalone="no"?><!-- Generator: Gravit.io --><svg xmlns="http://www.w3.org/2000/svg" xmlns:xlink="http://www.w3.org/1999/xlink" style="isolation:isolate" viewBox="0 0 497.856 497.856" width="497.856" height="497.856"><defs><clipPath id="_clipPath_VOzzbJ7kf8tbYmO4TwZpB8DDMsL6WMWN"><rect width="497.856" height="497.856"/></clipPath></defs><g clip-path="url(#_clipPath_VOzzbJ7kf8tbYmO4TwZpB8DDMsL6WMWN)"><path d=" M 159.484 357.856 L 104.967 357.856 C 85.686 357.856 70.001 342.17 70.001 322.89 L 70.001 34.966 C 70.001 15.685 85.686 0 104.967 0 L 392.89 0 C 412.17 0 427.855 15.686 427.855 34.966 L 427.855 322.89 C 427.855 342.171 412.17 357.856 392.89 357.856 L 338.369 357.856 C 338.369 296.779 338.369 219.964 338.368 216.136 C 338.368 203.831 327.689 193.856 314.516 193.856 L 183.337 193.856 C 170.165 193.856 159.486 203.831 159.484 216.136 L 159.484 357.856 Z " fill="rgb(255,255,255)"/><path d=" M 322.274 392.591 C 336.437 392.591 343.607 409.788 333.559 419.834 L 260.211 493.181 C 253.979 499.414 243.875 499.415 237.643 493.181 L 164.295 419.834 C 154.266 409.81 161.396 392.591 175.58 392.591 C 181.357 392.591 183.304 392.591 189.083 392.591 L 189.083 237.533 C 189.084 228.719 196.229 221.574 205.043 221.574 L 292.812 221.574 C 301.626 221.574 308.771 228.719 308.771 237.533 C 308.772 242.048 308.772 388.37 308.772 392.591 L 322.274 392.591 Z " fill="rgb(255,255,255)"/></g></svg>