<?xml version="1.0" standalone="no"?><!-- Generator: Gravit.io --><svg xmlns="http://www.w3.org/2000/svg" xmlns:xlink="http://www.w3.org/1999/xlink" style="isolation:isolate" viewBox="0 0 497.856 497.856" width="497.856" height="497.856"><defs><clipPath id="_clipPath_yKuolW4DstSrfd48TrLNNqs3yKtCwuPU"><rect width="497.856" height="497.856"/></clipPath></defs><g clip-path="url(#_clipPath_yKuolW4DstSrfd48TrLNNqs3yKtCwuPU)"><path d=" M 427.855 443.461 L 427.855 155.538 C 427.855 136.258 412.17 120.572 392.89 120.572 L 340.69 120.572 C 340.69 136.541 340.69 146.079 340.69 162.183 C 371.812 175.105 380.42 215.977 356.129 240.257 L 282.783 313.603 C 264.073 332.314 233.787 332.318 215.075 313.604 L 141.73 240.259 C 117.456 215.99 126.016 175.117 157.166 162.183 C 157.166 146.079 157.166 136.54 157.166 120.572 L 104.966 120.572 C 85.686 120.572 70.001 136.257 70.001 155.538 L 70.001 443.461 C 70.001 462.742 85.686 478.428 104.966 478.428 L 392.89 478.428 C 412.17 478.428 427.855 462.743 427.855 443.461 Z " fill="rgb(255,255,255)"/><path d=" M 175.582 190.445 C 161.419 190.445 154.249 207.642 164.297 217.688 L 237.645 291.036 C 243.877 297.268 253.981 297.269 260.213 291.036 L 333.561 217.688 C 343.59 207.664 336.46 190.445 322.276 190.445 C 316.499 190.445 314.552 190.445 308.773 190.445 L 308.773 35.387 C 308.772 26.573 301.627 19.428 292.813 19.428 L 205.044 19.428 C 196.23 19.428 189.085 26.573 189.085 35.387 C 189.084 39.903 189.084 186.224 189.084 190.445 L 175.582 190.445 Z " fill="rgb(255,255,255)"/></g></svg>