<?xml version="1.0" standalone="no"?><!-- Generator: Gravit.io --><svg xmlns="http://www.w3.org/2000/svg" xmlns:xlink="http://www.w3.org/1999/xlink" style="isolation:isolate" viewBox="0 0 980 980" width="980" height="980"><defs><clipPath id="_clipPath_9qz9lwKGD1jDUQqP6pjCKVKzIY84XtfG"><rect width="980" height="980"/></clipPath></defs><g clip-path="url(#_clipPath_9qz9lwKGD1jDUQqP6pjCKVKzIY84XtfG)"><path d=" M 189.223 436.1 C 209.123 402.8 247.723 375.7 275.323 375.7 L 833.023 375.7 L 833.023 317.5 C 833.023 278.7 801.523 247.2 762.723 247.2 L 383.523 247.2 L 358.623 159.6 C 351.123 133.3 322.923 112 295.623 112 L 107.723 112 C 48.223 112 0.023 160.2 0.023 219.6 L 0.023 682.3 C 0.023 721.1 16.223 725.6 36.123 692.3 L 189.223 436.1 Z " fill="rgb(255,255,255)"/><path d=" M 930.023 423 L 332.723 423 C 293.823 423 246.223 450 226.323 483.4 L 32.423 807.7 C 12.523 841 27.923 868 66.723 868 L 716.223 868 C 755.023 868 800.523 839.8 817.723 805 L 972.723 491.9 C 991.623 453.8 972.423 423 930.023 423 Z " fill="rgb(255,255,255)"/></g></svg>