<?xml version="1.0" standalone="no"?><!-- Generator: Gravit.io --><svg xmlns="http://www.w3.org/2000/svg" xmlns:xlink="http://www.w3.org/1999/xlink" style="isolation:isolate" viewBox="0 0 24 24" width="24" height="24"><defs><clipPath id="_clipPath_0zm2nyoGaIO9kynNxNOIzWKnt6F8RQ72"><rect width="24" height="24"/></clipPath></defs><g clip-path="url(#_clipPath_0zm2nyoGaIO9kynNxNOIzWKnt6F8RQ72)"><g id="icons"><g id="save"><path d=" M 11.2 16.6 C 11.6 17.1 12.4 17.1 12.8 16.6 L 18.8 10.3 C 19.3 9.8 18.8 9 18 9 L 14 9 C 14 9 14.2 4.4 14 2 C 13.9 0.9 13.1 0 12 0 C 10.9 0 10.1 0.9 10 2 C 9.8 4.3 10 9 10 9 L 6 9 C 5.2 9 4.7 9.8 5.2 10.4 L 11.2 16.6 L 11.2 16.6 Z " fill="rgb(255,255,255)"/><path d=" M 19 19 L 5 19 C 3.9 19 3 19.9 3 21 L 3 21 C 3 21.6 3.4 22 4 22 L 20 22 C 20.6 22 21 21.6 21 21 L 21 21 C 21 19.9 20.1 19 19 19 Z " fill="rgb(255,255,255)"/></g></g></g></svg>