<?xml version="1.0" standalone="no"?><!-- Generator: Gravit.io --><svg xmlns="http://www.w3.org/2000/svg" xmlns:xlink="http://www.w3.org/1999/xlink" style="isolation:isolate" viewBox="0 0 475 475" width="475" height="475"><defs><clipPath id="_clipPath_Kj5RqXaQcvLXXkknG0HLsxyqRRCFqSgL"><rect width="475" height="475"/></clipPath></defs><g clip-path="url(#_clipPath_Kj5RqXaQcvLXXkknG0HLsxyqRRCFqSgL)"><path d=" M 434.826 31.946 L 362.871 31.946 C 361.75 14.304 347.24 0.289 329.318 0.289 L 137.263 0.289 C 119.342 0.289 104.822 14.304 103.71 31.946 L 40.173 31.946 C 21.526 31.946 6.406 47.066 6.406 65.714 L 6.406 74.156 C 6.406 92.804 21.526 107.924 40.173 107.924 L 61.213 107.924 L 61.213 450.037 C 61.213 463.821 72.392 475 86.176 475 L 395.172 475 C 408.956 475 420.136 463.821 420.136 450.037 L 420.136 107.924 L 434.826 107.924 C 453.489 107.924 468.595 92.804 468.595 74.156 L 468.595 65.714 C 468.594 47.066 453.49 31.946 434.826 31.946 Z  M 172.268 414.984 C 172.268 427.564 162.071 437.787 149.466 437.787 C 136.868 437.787 126.663 427.564 126.663 414.984 L 126.663 130.084 C 126.663 117.487 136.868 107.282 149.466 107.282 C 162.071 107.282 172.268 117.488 172.268 130.084 L 172.268 414.984 Z  M 263.481 414.984 C 263.481 427.564 253.276 437.787 240.678 437.787 C 228.08 437.787 217.875 427.564 217.875 414.984 L 217.875 130.084 C 217.875 117.487 228.08 107.282 240.678 107.282 C 253.276 107.282 263.481 117.488 263.481 130.084 L 263.481 414.984 Z  M 354.693 414.984 C 354.693 427.564 344.488 437.787 331.89 437.787 C 319.277 437.787 309.087 427.564 309.087 414.984 L 309.087 130.084 C 309.087 117.487 319.276 107.282 331.89 107.282 C 344.488 107.282 354.693 117.488 354.693 130.084 L 354.693 414.984 Z " fill="rgb(255,255,255)"/></g></svg>